<?xml version="1.0" standalone="no"?>
<!DOCTYPE svg PUBLIC "-//W3C//DTD SVG 20010904//EN"
 "http://www.w3.org/TR/2001/REC-SVG-20010904/DTD/svg10.dtd">
<svg version="1.0" xmlns="http://www.w3.org/2000/svg"
 width="3503.000000pt" height="3503.000000pt" viewBox="0 0 3503.000000 3503.000000"
 preserveAspectRatio="xMidYMid meet">
<metadata>
Created by potrace 1.14, written by Peter Selinger 2001-2017
</metadata>
<g transform="translate(0.000000,3503.000000) scale(0.100000,-0.100000)"
fill="#000000" stroke="none">
<path d="M6816 28033 c-1 -1 -11 -4 -22 -6 -40 -7 -110 -30 -136 -43 -15 -8
-29 -13 -31 -12 -9 9 -179 -160 -172 -172 12 -20 -19 -21 -58 -2 -67 32 -116
53 -135 57 -9 2 -31 8 -47 13 -58 18 -194 7 -266 -21 -78 -30 -164 -85 -199
-128 -14 -17 -35 -42 -47 -56 -13 -14 -42 -66 -65 -114 -37 -77 -46 -88 -63
-83 -36 12 -196 7 -212 -6 -2 -2 -7 -3 -11 -4 -21 -3 -92 -40 -92 -48 0 -4 -5
-8 -11 -8 -12 0 -98 -67 -115 -90 -7 -8 -28 -33 -48 -54 -20 -22 -36 -43 -36
-47 0 -4 -6 -14 -14 -22 -17 -17 -69 -127 -85 -182 -7 -22 -15 -47 -18 -55 -4
-8 -7 -22 -7 -30 -1 -8 -4 -19 -7 -25 -4 -5 -5 -20 -4 -32 1 -13 -1 -23 -5
-23 -4 0 -6 -23 -5 -51 2 -44 -1 -54 -23 -73 -14 -11 -34 -30 -44 -41 -24 -24
-85 -150 -92 -187 -2 -15 -7 -31 -9 -35 -3 -5 -8 -24 -11 -43 -3 -19 -8 -46
-11 -60 -14 -62 -5 -260 15 -329 5 -19 7 -37 5 -42 -3 -4 -1 -9 5 -11 5 -1 11
-15 12 -30 1 -16 6 -28 10 -28 4 0 7 -3 7 -7 -1 -5 0 -11 1 -15 1 -5 3 -11 4
-15 1 -5 10 -26 20 -48 49 -106 49 -107 35 -116 -8 -5 -9 -9 -4 -9 6 0 3 -5
-7 -10 -18 -11 -68 -95 -68 -116 0 -8 -3 -14 -8 -14 -14 0 -38 -96 -47 -190
-2 -19 -4 -37 -5 -40 -2 -9 2 -194 5 -220 3 -23 17 -85 31 -135 3 -11 6 -26 6
-32 1 -7 5 -13 10 -13 4 0 8 -6 8 -14 0 -15 71 -154 100 -196 13 -18 15 -31 9
-48 -21 -56 -36 -243 -21 -266 3 -6 8 -19 9 -28 5 -32 46 -112 95 -187 70
-104 139 -178 216 -231 44 -29 49 -63 19 -117 -10 -18 -15 -33 -11 -33 4 0 2
-6 -4 -13 -13 -16 -23 -58 -27 -117 -2 -25 -4 -47 -5 -50 -1 -3 -2 -9 -1 -14
1 -4 3 -27 6 -50 2 -22 6 -52 10 -66 3 -14 8 -36 11 -49 3 -13 10 -34 16 -45
6 -12 10 -22 8 -24 -5 -6 34 -92 42 -92 4 0 8 -6 8 -12 0 -7 9 -24 20 -38 13
-18 16 -28 8 -37 -6 -7 -8 -13 -4 -13 3 0 -5 -23 -20 -51 -14 -28 -23 -57 -20
-65 3 -7 1 -16 -4 -19 -8 -5 -6 -130 3 -170 28 -117 87 -209 176 -275 l24 -17
-49 -77 c-27 -42 -61 -95 -76 -118 -15 -24 -31 -50 -35 -58 -3 -8 -9 -17 -13
-20 -3 -3 -25 -39 -49 -80 -51 -86 -190 -303 -200 -310 -4 -3 -17 -18 -30 -35
-35 -47 -156 -169 -296 -300 -201 -189 -324 -314 -430 -439 -28 -32 -55 -64
-61 -70 -15 -16 -209 -275 -281 -376 -120 -169 -343 -504 -343 -517 0 -7 -4
-13 -8 -13 -5 0 -16 -15 -25 -32 -9 -18 -28 -51 -41 -73 -14 -22 -37 -64 -53
-92 -15 -29 -31 -53 -36 -53 -4 0 -6 -4 -2 -9 3 -5 0 -15 -7 -23 -7 -7 -31
-47 -52 -88 -22 -41 -42 -77 -46 -80 -3 -3 -12 -20 -19 -37 -8 -18 -18 -33
-23 -33 -5 0 -7 -4 -3 -9 3 -5 1 -12 -4 -16 -5 -3 -16 -18 -24 -33 -15 -30
-37 -69 -86 -150 -17 -29 -31 -57 -31 -62 0 -4 -4 -10 -8 -12 -10 -4 -112
-210 -112 -226 0 -7 -5 -12 -11 -12 -5 0 -8 -4 -4 -9 3 -5 1 -12 -5 -16 -5 -3
-10 -15 -10 -26 0 -10 -5 -19 -12 -19 -6 0 -9 -3 -5 -6 3 -3 -3 -23 -14 -42
-10 -20 -19 -42 -19 -49 0 -7 -5 -13 -11 -13 -6 0 -9 -7 -5 -15 3 -8 1 -15 -4
-15 -6 0 -9 -3 -8 -7 1 -5 -4 -21 -10 -36 -7 -16 -12 -33 -12 -38 0 -5 -5 -9
-11 -9 -5 0 -8 -4 -5 -9 3 -5 -1 -21 -8 -37 -8 -16 -16 -38 -18 -49 -2 -11 -7
-23 -12 -27 -5 -3 -11 -17 -13 -29 -2 -13 -10 -35 -17 -51 -8 -15 -17 -41 -21
-58 -4 -18 -11 -27 -17 -24 -6 4 -8 3 -5 -3 3 -5 2 -27 -4 -49 -12 -51 -22
-170 -22 -264 -1 -98 21 -145 111 -235 133 -135 227 -199 392 -266 40 -16 360
-20 465 -6 33 5 72 10 87 12 15 2 32 6 37 10 6 3 11 3 11 -2 0 -4 -19 -21 -41
-38 -59 -43 -187 -179 -242 -257 -103 -144 -169 -301 -212 -503 -20 -96 -23
-132 -20 -285 3 -187 5 -201 37 -325 91 -346 364 -657 698 -795 30 -13 62 -29
71 -37 64 -54 291 -488 394 -753 20 -52 41 -104 46 -115 17 -39 122 -362 145
-450 26 -95 84 -320 89 -345 2 -8 19 -96 39 -195 32 -162 42 -222 51 -292 2
-13 6 -40 9 -60 4 -21 8 -51 10 -68 4 -28 13 -97 21 -155 2 -14 7 -54 10 -90
3 -36 8 -81 10 -100 4 -39 13 -136 20 -220 26 -338 26 -960 0 -1345 -2 -27 -6
-95 -10 -150 -9 -154 -14 -233 -21 -315 -10 -124 -12 -539 -3 -635 11 -115 19
-186 24 -205 2 -8 7 -30 10 -48 21 -127 81 -315 147 -467 110 -250 272 -470
476 -646 l52 -45 -19 -65 c-38 -122 -72 -295 -95 -474 -12 -89 -18 -239 -21
-522 -4 -329 -8 -389 -37 -481 -29 -96 -58 -121 -242 -211 -189 -93 -252 -132
-324 -204 -86 -84 -122 -171 -118 -290 2 -94 21 -148 68 -202 62 -70 150 -114
288 -143 49 -10 342 -9 413 2 l58 8 -2 -78 c-2 -83 -20 -184 -42 -236 -29 -69
-65 -97 -231 -178 -253 -123 -349 -198 -408 -318 -27 -54 -32 -77 -34 -146 -4
-116 16 -176 82 -242 58 -60 109 -88 208 -117 59 -17 101 -20 241 -21 329 -2
406 22 489 152 81 126 128 272 227 697 69 298 61 263 83 340 23 75 235 510
307 627 302 494 723 843 1271 1054 157 60 447 145 542 160 22 3 43 7 46 9 5 3
207 40 280 50 55 8 77 11 160 20 36 4 76 8 90 10 146 22 565 23 2190 9 465 -4
1492 -7 2282 -8 791 -1 1438 -5 1438 -9 0 -5 5 -5 12 -1 16 10 329 11 335 1 2
-4 9 -4 15 0 16 9 159 10 164 1 3 -5 10 -5 16 -1 16 9 209 10 229 1 9 -4 19
-4 23 -1 12 13 48 14 40 1 -5 -7 -3 -8 7 -3 19 13 79 12 79 0 0 -7 3 -7 8 0 8
12 211 14 229 2 6 -4 14 -3 17 1 6 11 76 10 93 -1 6 -4 14 -4 17 1 6 11 77 9
95 -3 10 -5 12 -4 7 3 -10 16 26 15 43 0 10 -9 12 -9 7 -1 -8 14 100 13 123
-2 9 -5 12 -4 8 3 -5 7 8 10 38 10 29 -1 42 -5 38 -12 -5 -8 -2 -7 8 0 21 17
903 18 893 1 -6 -9 -3 -8 8 1 9 7 36 12 60 12 23 -1 610 -2 1303 -1 1410 0
3175 -5 3190 -9 6 -1 12 -1 15 0 21 8 40 6 40 -3 0 -8 3 -7 9 1 4 8 12 14 16
14 4 0 12 -6 16 -14 5 -7 9 -8 9 -3 0 6 38 10 95 10 52 0 95 -4 95 -9 0 -5 6
-4 13 1 12 8 502 11 511 2 8 -8 17 -70 21 -138 3 -61 -33 -226 -67 -308 -6
-15 -12 -30 -13 -33 -10 -44 -17 -60 -25 -60 -5 0 -7 -6 -4 -14 3 -7 -2 -20
-10 -29 -8 -8 -13 -17 -10 -19 2 -3 -13 -43 -35 -89 -67 -146 -81 -178 -81
-188 0 -6 -4 -11 -10 -11 -5 0 -10 -7 -10 -15 0 -8 -4 -23 -10 -33 -31 -56
-144 -298 -142 -304 1 -5 -2 -8 -7 -8 -5 0 -18 -19 -30 -42 -37 -75 -108 -178
-116 -170 -5 4 -5 2 -2 -4 4 -7 -6 -27 -21 -47 -15 -19 -34 -45 -42 -57 -8
-12 -25 -34 -38 -48 -38 -45 -42 -51 -42 -62 0 -5 5 -10 10 -10 6 0 10 -7 10
-15 0 -9 7 -18 15 -21 8 -4 12 -10 9 -15 -3 -5 2 -9 10 -9 9 0 16 -4 16 -9 0
-5 14 -14 30 -21 17 -7 30 -19 30 -27 0 -8 5 -11 10 -8 6 4 17 1 25 -5 11 -9
18 -9 29 3 8 8 12 17 9 21 -4 3 -1 6 6 6 7 0 10 4 7 8 -3 5 4 15 15 22 10 8
19 18 19 22 0 4 18 36 40 70 53 83 62 96 83 123 9 13 17 28 17 33 0 6 3 12 8
14 4 1 25 30 47 63 22 33 43 62 46 65 3 3 14 21 25 40 10 19 21 37 24 40 3 3
33 47 65 98 99 154 153 233 168 243 5 3 9 10 10 15 0 5 5 14 10 19 28 33 117
160 117 167 0 5 5 6 10 3 6 -3 10 0 10 7 0 7 16 31 35 53 19 22 39 46 45 52 6
7 8 13 4 13 -4 0 2 8 12 18 11 9 35 36 53 60 26 33 36 40 47 32 13 -12 40 -79
36 -92 -1 -5 2 -8 7 -8 9 0 27 -57 23 -72 -1 -5 2 -8 6 -8 7 0 20 -40 37 -115
2 -11 9 -38 15 -60 18 -66 20 -78 26 -130 11 -95 4 -325 -12 -395 -3 -14 -7
-34 -8 -45 -1 -11 -6 -40 -11 -65 -4 -25 -9 -52 -10 -60 0 -9 -4 -20 -7 -26
-4 -6 -9 -23 -12 -39 -5 -28 -32 -125 -44 -155 -3 -8 -6 -17 -7 -20 -2 -6 -20
-51 -38 -95 -6 -16 -12 -32 -13 -35 0 -3 -8 -21 -16 -40 -9 -19 -14 -38 -11
-43 2 -4 -1 -6 -7 -5 -7 2 -14 -8 -16 -22 -3 -13 -9 -27 -15 -31 -6 -3 -10 -9
-10 -13 1 -3 -9 -30 -22 -59 -13 -28 -32 -73 -43 -99 -10 -27 -23 -48 -27 -48
-5 0 -5 -4 -2 -10 3 -5 2 -10 -4 -10 -10 0 6 -48 19 -60 3 -3 14 -22 23 -42
10 -21 23 -38 29 -38 6 0 9 -3 5 -6 -7 -7 -4 -11 53 -74 22 -25 40 -48 40 -52
0 -5 7 -8 16 -8 8 0 12 -4 9 -10 -3 -5 1 -10 9 -10 15 0 21 -12 17 -33 -1 -5
3 -6 7 -3 12 7 54 -29 45 -38 -3 -3 1 -6 11 -6 9 0 36 -18 59 -39 93 -88 117
-109 117 -105 0 4 38 -29 97 -84 19 -17 37 -32 39 -32 5 0 40 -29 70 -57 13
-13 26 -23 28 -23 7 0 45 -31 89 -72 17 -16 36 -28 44 -28 8 0 11 -4 8 -10 -3
-5 1 -10 10 -10 9 0 13 -4 10 -10 -3 -5 1 -10 10 -10 10 0 13 -5 9 -12 -4 -6
-3 -8 3 -5 6 4 28 -9 49 -28 21 -19 42 -35 47 -35 5 0 17 -8 26 -18 20 -21 47
-39 84 -55 15 -6 27 -15 27 -20 0 -4 4 -6 9 -3 4 3 16 -1 26 -8 20 -15 94 -4
106 16 4 6 12 7 18 4 6 -4 11 -2 11 4 0 6 5 8 10 5 6 -3 10 -1 10 5 0 6 5 8
10 5 6 -3 10 -1 10 6 0 7 3 10 6 6 4 -3 13 0 21 8 8 8 23 15 34 15 10 0 19 5
19 10 0 6 7 10 15 10 8 0 15 5 15 12 0 6 3 9 6 5 4 -3 32 10 63 30 31 20 68
43 84 50 15 8 27 18 27 21 0 4 15 13 33 21 17 8 34 17 37 21 10 13 85 55 93
52 5 -1 6 2 3 7 -4 5 3 12 14 16 11 3 20 11 20 17 0 6 3 8 7 5 3 -4 15 0 25
10 10 9 18 13 18 9 0 -4 10 2 22 14 12 11 34 26 50 32 15 7 28 16 28 20 0 5 6
8 14 8 8 0 16 3 18 8 4 9 65 52 73 52 4 0 12 6 19 13 20 18 53 40 62 41 5 0
19 11 32 25 12 13 22 21 22 17 0 -9 20 8 70 58 22 22 38 42 35 44 -2 2 11 18
29 36 17 17 47 52 66 79 18 26 37 47 42 47 4 0 8 7 8 15 0 8 5 15 11 15 5 0 7
5 4 10 -3 6 -1 10 4 10 6 0 10 3 10 8 -1 4 0 9 1 12 11 28 60 244 65 290 7 52
7 246 0 305 -5 38 -5 49 -5 78 1 37 -12 120 -23 147 -4 8 -8 24 -10 35 -8 42
-27 74 -59 100 -18 14 -37 26 -41 25 -4 0 -19 8 -34 19 -14 12 -29 18 -33 16
-5 -3 -21 0 -37 6 -15 6 -37 15 -48 19 -93 36 -232 105 -257 128 -10 8 -18 12
-18 7 0 -4 -6 -2 -13 4 -8 6 -17 8 -21 4 -4 -4 -4 1 0 11 4 11 3 17 -2 14 -30
-18 -80 39 -89 100 -2 15 -7 41 -11 57 -3 17 -7 50 -9 75 -2 25 -4 45 -5 45
-1 0 -3 11 -5 25 -10 63 -12 77 -20 114 -4 22 -9 49 -10 60 -1 12 -3 21 -5 21
-1 0 -3 16 -5 35 -2 19 -8 49 -13 65 -5 17 -8 38 -6 48 1 9 -1 17 -5 17 -6 0
-12 39 -15 98 -1 12 -4 22 -7 22 -3 0 -6 20 -8 44 -1 25 -4 53 -6 63 -10 41
-34 152 -39 176 -2 15 -7 31 -10 36 -3 5 -8 24 -11 42 -2 19 -6 44 -9 56 l-5
23 387 1 c213 0 603 3 867 6 1100 12 1581 9 1790 -12 125 -12 172 -17 189 -21
11 -2 54 -8 95 -14 93 -13 116 -17 211 -35 41 -9 84 -17 95 -19 11 -2 65 -16
120 -30 55 -15 109 -29 119 -31 11 -3 47 -14 81 -25 l62 -21 66 -143 c74 -160
86 -199 158 -512 62 -272 54 -239 79 -331 50 -181 113 -331 172 -406 38 -47
100 -84 158 -92 25 -3 56 -8 70 -10 45 -9 123 -15 215 -15 294 -2 475 83 537
253 l22 60 98 -198 c54 -109 98 -203 98 -210 0 -6 5 -16 11 -22 21 -21 86
-234 105 -343 3 -14 14 -62 24 -107 11 -46 22 -93 24 -105 5 -29 50 -206 70
-279 55 -196 145 -363 224 -413 58 -36 202 -55 397 -51 167 3 188 6 270 32
114 36 189 93 233 177 24 45 26 62 26 151 0 119 -17 167 -84 249 -68 82 -119
116 -362 242 -15 8 -30 14 -33 14 -3 0 -31 13 -63 29 -55 28 -93 62 -119 109
-16 28 -17 56 -1 46 7 -4 8 -3 4 5 -4 6 -11 9 -16 6 -12 -7 -24 38 -24 87 0
21 -4 38 -9 38 -5 0 -3 8 4 17 8 10 9 14 2 10 -9 -6 -12 20 -12 100 0 60 -1
110 -1 113 -6 23 -4 60 3 60 4 0 5 5 1 12 -10 16 -11 69 -1 75 4 2 5 9 1 14
-11 18 -11 69 0 69 7 0 8 3 1 8 -15 11 -19 46 -4 36 8 -5 9 -3 3 7 -5 8 -9 41
-10 74 -1 33 -5 92 -8 132 -19 234 -15 200 -41 348 -8 50 -20 108 -26 130 -5
22 -15 58 -20 80 -13 52 -56 185 -81 251 -11 29 -21 58 -22 65 -2 8 -8 28 -15
44 -7 17 -33 82 -58 145 -104 263 -243 524 -330 621 l-24 26 43 13 c393 120
711 358 936 699 143 215 273 552 307 796 3 22 8 49 10 60 25 117 25 669 0 935
-2 19 -6 87 -9 150 -4 63 -9 135 -11 160 -26 287 -26 1015 0 1337 2 27 7 82
10 123 3 41 8 91 10 110 2 19 7 60 10 90 4 30 8 66 10 80 2 14 6 54 10 90 3
36 8 72 10 80 2 8 7 35 10 60 3 25 10 70 15 100 5 30 11 69 14 85 2 17 18 102
36 190 128 648 350 1262 616 1702 66 109 100 153 117 153 5 0 44 17 86 37 66
32 105 56 241 150 60 41 211 205 267 291 84 127 153 297 169 417 3 22 10 58
14 80 10 43 6 347 -4 405 -55 298 -168 516 -369 715 -108 106 -218 185 -355
254 -137 69 -335 129 -477 145 -108 13 -139 18 -195 31 -67 16 -153 33 -200
40 -132 19 -187 25 -280 32 -132 10 -542 10 -674 0 -82 -6 -284 -41 -362 -63
-18 -5 -24 8 -68 143 -46 142 -118 320 -206 507 -23 48 -51 111 -64 140 -13
28 -67 128 -121 221 -54 94 -105 184 -115 200 -21 37 -117 183 -165 250 -20
28 -48 68 -62 90 -90 138 -376 500 -509 645 -114 124 -273 281 -399 394 -60
54 -126 113 -145 131 -35 32 -191 153 -298 232 -31 23 -61 46 -67 50 -34 28
-329 231 -425 293 -289 185 -656 376 -998 519 -107 45 -198 81 -203 81 -5 0
-28 9 -52 19 -69 31 -417 145 -552 181 -16 5 -57 16 -90 25 -63 17 -285 74
-320 82 -11 2 -31 6 -45 9 -14 3 -81 19 -150 35 -235 56 -608 130 -785 154
-27 4 -59 9 -70 10 -11 2 -60 8 -110 15 -49 6 -101 13 -115 16 -14 2 -72 8
-130 14 -58 6 -121 12 -140 15 -19 2 -75 7 -125 11 -49 3 -106 8 -125 9 -62 5
-231 15 -360 21 -159 7 -762 7 -900 0 -210 -11 -306 -17 -380 -22 -78 -5 -94
-6 -245 -20 -49 -4 -115 -8 -147 -9 -31 0 -54 -3 -52 -6 2 -4 -38 -10 -89 -14
-50 -4 -101 -9 -112 -11 -11 -2 -40 -6 -65 -9 -105 -12 -193 -25 -202 -31 -5
-3 -8 1 -8 8 0 8 -3 9 -8 3 -4 -5 -12 -11 -17 -12 -42 -7 -106 -15 -137 -16
-21 -1 -38 -5 -38 -9 0 -5 -3 -7 -7 -6 -10 3 -140 -15 -195 -27 -13 -2 -38 -7
-55 -10 -71 -11 -90 -15 -133 -24 -24 -5 -52 -8 -62 -6 -10 2 -18 0 -18 -5 0
-4 -15 -7 -34 -6 -19 1 -32 -2 -30 -6 3 -5 -3 -8 -13 -9 -10 0 -27 -3 -38 -5
-11 -3 -33 -7 -50 -8 -16 -2 -37 -6 -45 -9 -8 -4 -28 -9 -45 -10 -16 -2 -50
-9 -74 -16 -23 -7 -50 -10 -58 -7 -8 3 -11 1 -8 -4 4 -6 -6 -8 -24 -6 -19 2
-28 -1 -24 -7 4 -6 -2 -8 -15 -5 -12 4 -22 2 -22 -4 0 -6 -11 -8 -25 -6 -14 3
-25 1 -25 -4 0 -5 -6 -8 -12 -5 -7 2 -30 -2 -52 -9 -21 -8 -49 -12 -62 -10
-14 3 -22 1 -19 -5 6 -8 -5 -11 -52 -13 -10 -1 -20 -4 -23 -7 -3 -4 -21 -10
-41 -13 -20 -3 -48 -10 -63 -15 -14 -6 -26 -8 -26 -5 0 2 -8 0 -18 -5 -13 -7
-23 -6 -32 2 -10 9 -11 9 -6 0 4 -8 1 -13 -8 -14 -19 -2 -35 -5 -38 -9 -2 -2
-17 -3 -33 -4 -17 -1 -36 -6 -43 -10 -7 -4 -16 -4 -22 -1 -5 3 -10 2 -10 -3 0
-5 -30 -16 -67 -25 -38 -8 -97 -23 -133 -32 -36 -9 -72 -18 -80 -20 -663 -165
-1746 -515 -2695 -870 -98 -37 -145 -40 -145 -10 0 8 -4 14 -8 13 -5 -2 -21 9
-38 24 -98 89 -122 109 -146 120 -16 7 -28 16 -28 20 0 5 -9 8 -20 8 -11 0
-20 4 -20 9 0 9 -48 31 -85 38 -11 3 -81 5 -155 5 -149 0 -237 -16 -324 -57
-69 -33 -103 -60 -256 -208 -70 -67 -181 -172 -246 -233 -65 -61 -139 -130
-164 -154 -24 -23 -76 -70 -114 -104 -37 -33 -83 -74 -100 -90 -52 -49 -209
-172 -241 -189 -28 -16 -120 -52 -370 -147 -55 -21 -207 -79 -338 -129 -132
-50 -241 -91 -243 -91 -6 0 -1 33 6 40 5 5 28 62 34 85 3 12 15 42 26 70 4 11
22 58 40 105 18 47 39 97 47 113 8 15 11 27 8 27 -3 0 0 12 8 28 19 36 40 87
35 87 -1 1 5 13 15 28 10 15 15 32 12 37 -3 6 -2 10 2 10 5 0 17 26 28 58 10
31 24 67 32 80 7 12 11 22 8 22 -3 0 3 17 14 39 11 21 17 41 14 45 -4 3 -2 6
4 6 5 0 10 6 10 13 0 6 8 30 17 52 29 65 70 172 71 185 1 3 6 14 12 25 6 11
16 36 21 55 6 19 27 78 46 130 46 121 46 120 44 123 -1 1 5 13 12 27 16 28 15
24 25 68 4 18 12 35 16 38 5 3 9 16 9 30 0 13 5 24 11 24 6 0 9 9 6 20 -3 10
-1 20 5 22 5 2 11 12 13 23 2 11 4 21 5 23 2 1 3 5 4 10 1 4 7 17 14 28 6 12
8 24 5 28 -3 3 -1 6 5 6 7 0 11 3 10 8 0 4 2 16 7 27 32 84 74 194 79 213 4
12 10 22 14 22 4 0 8 12 9 27 0 15 6 29 12 31 6 2 11 11 11 20 0 10 8 33 19
52 10 19 22 50 25 68 4 17 11 32 15 32 4 0 14 18 21 40 7 22 19 45 27 51 7 6
13 17 13 25 0 7 6 19 14 26 7 8 23 33 34 55 18 35 49 58 75 54 4 -1 7 3 7 9 0
9 61 40 77 39 3 -1 10 6 15 15 5 9 13 14 17 11 5 -2 14 2 21 10 7 8 18 15 25
15 8 0 15 3 17 8 2 4 21 19 43 34 22 15 51 38 65 50 14 13 43 39 65 58 22 20
41 39 42 43 2 8 164 178 242 254 24 23 48 40 52 37 5 -3 9 -1 9 4 0 11 54 38
90 46 14 3 54 12 90 21 36 9 78 18 94 20 15 3 38 8 50 12 11 3 30 7 41 8 11 1
28 5 38 9 9 5 24 6 32 2 8 -3 15 -2 15 2 0 7 20 12 63 15 9 1 17 5 17 10 0 4
5 5 10 2 6 -3 12 0 15 7 9 23 13 77 6 84 -3 3 -6 9 -6 12 -2 25 -20 53 -43 68
-15 10 -30 18 -33 17 -3 -1 -21 14 -39 32 -20 21 -28 35 -20 35 11 0 120 38
215 76 11 4 25 8 30 9 6 0 17 5 25 10 8 5 20 10 25 11 15 3 157 54 180 64 20
10 179 67 335 122 47 16 91 35 99 41 8 7 15 10 15 8 1 -2 26 4 56 14 30 11 57
20 60 20 3 1 16 6 30 12 14 6 81 31 150 56 69 25 148 54 175 65 28 11 52 20
55 20 3 0 19 6 35 12 17 7 35 13 40 14 12 4 42 14 75 28 14 5 45 16 70 24 25
8 54 19 65 24 30 13 488 181 505 185 8 2 16 4 18 5 1 2 5 3 10 5 4 1 15 5 24
9 9 4 22 9 30 10 7 2 27 9 43 16 17 6 41 16 55 20 14 5 57 20 95 35 39 14 107
39 151 55 45 15 90 33 100 38 11 6 22 10 27 11 16 2 28 6 62 20 36 15 166 62
180 65 6 1 21 8 35 16 14 7 26 13 28 12 1 -1 4 -1 7 -1 13 4 21 6 35 12 43 18
234 87 240 87 4 0 25 8 46 17 22 9 46 18 54 19 8 2 30 10 50 18 49 21 226 86
235 86 4 0 21 6 38 14 18 7 61 24 97 36 36 13 71 28 78 33 6 5 12 7 12 4 0 -3
24 4 53 15 89 33 162 60 172 62 6 1 15 4 20 8 6 4 49 20 95 36 47 17 99 35
115 42 17 6 31 11 32 11 5 -1 79 28 118 45 22 10 42 18 45 19 3 0 15 6 28 13
12 7 22 9 22 5 0 -4 5 -2 12 5 17 17 32 15 16 -3 -30 -34 -36 -43 -31 -49 3
-3 -2 -8 -11 -12 -9 -3 -14 -10 -11 -14 2 -4 -4 -26 -15 -48 -37 -76 -13 -103
28 -32 13 24 28 38 34 34 6 -4 8 -3 5 3 -4 6 4 22 18 37 13 15 25 29 25 31 0
3 0 10 0 16 0 5 4 8 9 4 5 -3 12 3 15 13 4 10 13 19 21 19 13 0 13 -4 -1 -25
-11 -17 -12 -22 -3 -16 11 6 12 5 3 -7 -6 -8 -12 -21 -13 -29 -8 -84 -6 -107
8 -130 19 -29 48 -60 58 -60 3 0 14 -7 24 -16 9 -8 30 -16 46 -18 15 -1 33 -5
39 -9 6 -3 14 -4 18 0 6 6 41 13 79 16 9 1 17 5 17 9 0 4 4 8 9 8 18 0 121 67
114 73 -3 4 0 7 8 7 15 0 153 131 209 199 19 23 45 55 58 69 39 45 182 191
182 186 0 -5 19 10 48 37 9 9 24 19 32 22 17 6 15 7 -45 12 -16 1 -31 4 -32 5
-2 1 -6 3 -10 4 -5 2 -28 8 -53 15 -25 7 -49 14 -55 15 -5 1 -15 5 -21 8 -6 4
-21 9 -35 12 -13 2 -45 13 -71 25 -26 11 -63 23 -83 27 -19 3 -38 10 -41 15
-3 5 -14 9 -25 9 -10 0 -27 4 -37 9 -19 11 -51 23 -68 26 -7 2 -38 12 -70 23
-89 30 -115 35 -169 33 -68 -2 -122 -18 -134 -39 -6 -9 -11 -13 -11 -9 0 15
-28 -19 -47 -59 -24 -50 -22 -136 3 -191 10 -21 20 -40 23 -43 4 -3 7 -11 9
-18 2 -10 -2 -10 -19 -2 -11 7 -23 9 -26 6 -3 -3 -15 0 -27 6 -21 12 -27 13
-76 22 -14 2 -25 5 -25 6 0 2 -35 10 -64 15 -22 3 -20 -1 17 -36 23 -21 42
-44 42 -50 0 -5 4 -8 9 -5 8 6 63 -31 69 -46 2 -5 8 -6 13 -2 5 3 9 1 9 -5 0
-9 -17 -24 -30 -27 -3 0 -18 -6 -35 -13 -16 -7 -41 -15 -54 -17 -14 -3 -29 -8
-35 -12 -6 -3 -15 -7 -21 -8 -10 -2 -236 -80 -265 -91 -8 -4 -17 -7 -20 -7 -3
-1 -9 -4 -15 -8 -5 -3 -30 -12 -55 -19 -56 -16 -52 -15 -70 -22 -18 -8 -190
-68 -205 -72 -10 -2 -21 -6 -80 -28 -16 -6 -34 -12 -40 -14 -35 -7 -171 -59
-177 -68 -4 -5 -8 -7 -8 -3 0 4 -39 -6 -87 -23 -48 -17 -94 -33 -102 -35 -13
-3 -128 -43 -191 -67 -8 -3 -46 -16 -85 -29 -38 -12 -72 -25 -75 -28 -3 -3
-12 -5 -20 -5 -8 1 -19 -2 -25 -6 -5 -3 -73 -28 -150 -53 -77 -26 -148 -51
-157 -57 -10 -5 -22 -9 -27 -9 -5 0 -22 -5 -38 -11 -15 -6 -29 -10 -30 -10 -2
0 -22 -7 -45 -16 -55 -20 -500 -173 -638 -220 -58 -19 -111 -40 -117 -45 -7
-6 -13 -8 -13 -5 0 3 -71 -19 -157 -49 -87 -30 -214 -73 -283 -96 -69 -22
-129 -43 -135 -46 -5 -4 -16 -7 -23 -8 -8 -2 -21 -6 -30 -10 -9 -4 -24 -8 -33
-10 -9 -2 -29 -9 -45 -15 -27 -11 -37 -15 -66 -22 -7 -2 -30 -11 -52 -20 -21
-9 -44 -17 -50 -17 -6 0 -35 -9 -64 -20 -28 -11 -55 -20 -60 -21 -4 -1 -18 -6
-32 -11 -14 -5 -35 -12 -47 -14 -12 -2 -33 -8 -47 -14 -13 -5 -27 -6 -30 -3
-3 4 -6 2 -6 -4 0 -6 -17 -14 -37 -19 -53 -11 -58 -11 -55 4 8 40 8 73 1 78
-5 3 -7 9 -4 14 3 4 -2 13 -10 20 -11 9 -28 10 -63 3 -26 -5 -108 -8 -182 -7
-122 2 -142 4 -200 29 -36 15 -67 30 -70 34 -5 6 -23 17 -99 58 -19 10 -41 25
-50 33 -9 8 -31 26 -48 40 -17 13 -29 29 -26 34 3 5 2 6 -3 3 -6 -3 -42 25
-81 62 -75 72 -169 127 -188 111 -7 -6 -14 -8 -16 -5 -3 2 -20 -9 -37 -25 -18
-16 -32 -25 -32 -19 0 5 -7 9 -15 9 -8 0 -15 5 -15 10 0 6 -3 9 -7 8 -5 0 -16
2 -26 7 -39 17 -126 -19 -127 -52 0 -5 -13 -25 -28 -45 -27 -35 -29 -36 -41
-16 -7 11 -15 17 -18 14 -3 -3 -12 1 -20 9 -8 9 -33 15 -59 15 l-44 0 -35 -77
c-63 -138 -70 -141 -71 -33 -1 52 -6 86 -15 97 -10 12 -10 15 -1 9 15 -9 11
21 -9 69 -6 17 -13 35 -14 41 -7 32 -78 106 -106 110 -5 1 -12 3 -16 4 -31 10
-84 -8 -99 -31 -5 -8 -2 -9 7 -4 11 6 11 5 2 -5 -8 -9 -9 -19 -2 -32 5 -10 7
-18 3 -18 -3 0 -2 -6 4 -12 5 -7 13 -31 16 -53 12 -74 17 -98 22 -106 2 -4 0
-11 -6 -14 -8 -5 -8 -11 0 -20 10 -13 16 -207 6 -223 -3 -5 -7 -21 -10 -36
-10 -57 -39 -142 -57 -172 -10 -17 -19 -41 -19 -53 0 -11 -6 -21 -14 -21 -7 0
-20 -14 -27 -32 -7 -18 -20 -40 -29 -49 -44 -50 -75 -92 -75 -102 -1 -7 -6
-11 -12 -10 -7 2 -15 -6 -18 -17 -4 -11 -10 -20 -15 -20 -5 0 -11 -9 -15 -20
-3 -11 -12 -19 -18 -17 -7 1 -11 -3 -10 -10 1 -6 -9 -22 -22 -35 -14 -13 -25
-28 -25 -35 0 -6 -4 -13 -8 -15 -15 -6 -57 -73 -54 -85 2 -7 -3 -13 -9 -13 -7
0 -10 -3 -6 -6 3 -3 -4 -31 -15 -62 -11 -32 -21 -92 -23 -137 -2 -44 -7 -105
-11 -135 -3 -30 -7 -63 -7 -72 -1 -10 -4 -18 -7 -18 -3 0 -6 -10 -7 -22 -4
-127 -26 -246 -68 -358 -66 -178 -79 -210 -114 -280 -41 -82 -63 -122 -71
-130 -5 -5 -16 -24 -57 -99 -14 -25 -30 -52 -36 -58 -5 -7 -6 -13 -1 -13 5 0
1 -5 -8 -11 -10 -5 -18 -17 -18 -25 0 -8 -4 -13 -9 -10 -5 3 -8 0 -7 -7 2 -17
-76 -147 -85 -141 -4 2 -5 -5 -2 -16 3 -11 0 -20 -6 -20 -6 0 -11 -6 -11 -14
0 -8 -4 -16 -9 -18 -5 -1 -11 -10 -13 -18 -2 -8 -10 -22 -18 -30 -8 -8 -16
-22 -18 -30 -2 -8 -11 -23 -19 -32 -9 -10 -13 -18 -9 -18 4 0 0 -7 -8 -16 -9
-8 -16 -22 -16 -30 0 -8 -5 -14 -11 -14 -5 0 -7 -4 -4 -10 3 -5 2 -10 -3 -10
-5 0 -17 -18 -28 -39 -10 -22 -22 -37 -26 -35 -5 3 -8 -2 -8 -10 0 -9 -5 -16
-10 -16 -6 0 -9 -6 -8 -12 2 -7 -3 -12 -10 -10 -8 1 -11 -2 -7 -8 7 -11 -24
-70 -37 -70 -4 0 -8 -6 -8 -13 0 -7 -9 -23 -20 -35 -11 -12 -20 -25 -20 -30 0
-4 -8 -17 -18 -28 -10 -10 -25 -34 -32 -51 -8 -18 -18 -33 -21 -33 -4 0 -9 -8
-12 -17 -4 -10 -20 -40 -37 -68 -17 -27 -36 -61 -43 -75 -6 -14 -14 -27 -17
-30 -3 -3 -14 -22 -25 -42 -11 -21 -23 -38 -28 -38 -4 0 -6 -4 -3 -9 4 -5 2
-11 -2 -13 -8 -3 -38 -52 -92 -150 -11 -21 -25 -38 -31 -38 -6 0 -8 -4 -4 -9
3 -5 -2 -16 -10 -24 -8 -9 -15 -18 -15 -22 0 -3 -50 -84 -110 -180 -60 -97
-110 -179 -110 -184 0 -5 -3 -11 -8 -13 -4 -1 -43 -59 -87 -128 -44 -69 -99
-153 -122 -188 -24 -34 -43 -66 -43 -71 0 -5 -3 -11 -8 -13 -10 -4 -152 -224
-152 -235 0 -11 -43 -53 -54 -53 -9 0 18 -27 -408 397 -183 182 -350 351 -370
375 -21 24 -57 64 -80 89 -55 59 -188 206 -208 230 -8 9 -29 34 -47 56 -17 21
-61 69 -97 107 -36 38 -66 70 -66 72 0 2 -20 22 -45 45 -25 23 -42 46 -38 53
3 6 3 8 -2 4 -4 -4 -22 8 -39 26 -83 88 -116 126 -116 135 0 5 -9 13 -20 16
-11 3 -20 11 -20 16 0 6 -22 32 -50 60 -27 27 -50 53 -50 56 0 3 -9 15 -20 27
-11 12 -33 35 -48 52 -15 18 -42 48 -59 68 -18 19 -33 41 -33 47 0 7 -3 9 -6
6 -10 -10 -45 34 -37 46 3 5 2 7 -4 4 -5 -3 -18 6 -29 21 -10 15 -29 37 -41
50 -13 13 -23 25 -23 27 0 10 -143 145 -153 145 -6 0 -7 3 -4 6 3 4 -13 20
-36 37 -23 17 -45 35 -49 41 -5 7 -8 7 -8 1 0 -5 -5 -3 -10 5 -5 8 -13 15 -17
15 -4 0 -17 9 -29 20 -33 32 -64 55 -64 49 0 -3 -17 11 -37 30 -21 20 -43 36
-48 36 -6 0 -18 8 -27 18 -33 34 -111 86 -162 107 -40 17 -183 24 -236 12
-113 -24 -233 -96 -318 -189 -14 -16 -29 -28 -34 -28 -9 0 62 103 74 108 5 2
8 9 8 16 0 7 9 22 20 34 12 12 16 22 10 22 -6 0 -8 5 -5 11 10 15 8 196 -1
211 -5 7 -10 22 -11 33 -4 23 -45 95 -82 145 -30 41 -36 74 -15 91 8 6 14 16
14 21 0 6 9 23 21 39 25 36 70 143 76 184 3 17 8 35 13 40 17 23 -2 225 -22
225 -5 0 -6 5 -3 10 3 6 1 10 -4 10 -6 0 -10 3 -9 8 2 10 -35 72 -44 72 -5 0
-8 7 -8 15 0 8 -7 15 -15 15 -9 0 -18 7 -21 15 -4 8 -10 12 -15 9 -20 -12 -6
32 38 119 26 50 48 94 48 97 3 8 17 44 30 75 20 47 34 97 40 145 2 14 4 25 5
25 3 0 9 59 16 160 3 50 11 95 17 100 7 7 8 6 3 -2 -5 -9 1 -12 18 -11 15 1
26 5 26 9 0 3 6 6 13 6 28 0 65 36 91 88 14 30 27 57 27 60 0 2 9 28 19 56 11
29 17 56 14 60 -3 5 0 9 7 9 7 0 10 3 7 6 -3 3 0 26 6 52 7 26 12 64 12 85 -1
20 2 37 6 37 7 0 3 34 -7 49 -3 5 -1 12 5 16 6 4 7 11 4 17 -4 6 -9 32 -10 57
-4 43 -10 86 -14 86 -1 0 -3 7 -5 15 -10 48 -84 167 -96 156 -2 -2 -11 4 -20
13 -13 13 -14 21 -6 41 11 25 13 40 16 93 1 19 5 26 13 21 7 -5 8 -3 3 7 -8
12 -9 37 -2 114 2 17 -1 35 -5 42 -5 6 -5 14 1 17 5 4 7 16 5 29 -3 12 -5 28
-5 35 1 6 1 20 1 30 0 9 0 31 1 47 1 38 1 44 -4 78 -3 15 0 27 7 27 7 0 7 3 1
8 -5 4 -11 30 -11 57 -3 107 -7 151 -16 168 -6 11 -5 17 2 17 6 0 8 5 4 12 -5
7 -10 33 -12 58 -2 25 -8 51 -14 58 -6 7 -8 15 -5 18 3 3 0 25 -8 49 -7 24
-10 46 -7 49 3 4 1 6 -5 6 -5 0 -10 6 -11 13 -1 25 -12 59 -21 71 -5 6 -11 20
-13 31 -1 11 -6 22 -9 25 -3 3 -22 35 -42 73 -28 52 -34 73 -28 95 8 28 6 280
-3 342 -2 19 -8 58 -12 85 -3 28 -7 57 -8 65 -1 9 -5 20 -8 25 -6 11 -23 96
-20 107 1 3 -5 12 -13 18 -8 7 -15 21 -15 31 0 33 -83 159 -151 229 -75 76
-172 130 -234 130 -20 0 -34 3 -32 8 3 4 0 18 -6 32 -5 14 -11 30 -12 35 -2 6
-11 28 -20 50 -10 22 -19 45 -20 52 -2 6 -13 26 -26 45 -51 74 -59 88 -59 97
0 5 -7 12 -16 15 -8 3 -12 10 -9 16 3 5 2 10 -2 10 -5 0 -16 12 -25 28 -31 53
-80 101 -142 141 -34 23 -68 41 -74 41 -7 0 -12 5 -12 10 0 5 -3 9 -7 9 -5 -1
-10 0 -13 1 -3 1 -12 3 -20 5 -8 2 -26 7 -40 10 -41 11 -180 12 -180 2 0 -5
-7 -7 -15 -3 -23 8 -119 -28 -177 -67 -29 -19 -48 -16 -48 9 0 8 -4 14 -10 14
-5 0 -10 6 -10 13 0 8 -9 22 -20 32 -11 10 -20 24 -20 32 0 8 -4 11 -10 8 -5
-3 -10 -1 -10 5 0 16 -99 110 -116 110 -8 0 -14 4 -14 8 0 5 -24 19 -52 31
-29 13 -61 28 -72 33 -13 7 -16 6 -11 -3 6 -9 4 -9 -6 -3 -12 8 -176 14 -183
7z m8179 -4187 c8 -7 12 -16 9 -19 -3 -3 9 -11 25 -18 17 -8 31 -17 31 -21 0
-10 96 -27 172 -31 37 -2 70 -6 74 -10 4 -3 11 -4 17 0 13 8 87 8 87 0 0 -4
-1 -6 -2 -5 -2 1 -14 -5 -28 -12 -14 -8 -34 -16 -45 -17 -41 -7 -232 -65 -273
-83 -68 -30 -126 -77 -158 -127 -16 -26 -28 -51 -26 -56 1 -4 -3 -5 -10 -1
-19 12 -68 12 -68 0 0 -6 -5 -4 -10 4 -14 21 -12 33 3 24 9 -6 9 -5 0 7 -9 11
-7 25 10 64 12 28 27 56 34 63 7 7 13 22 13 33 0 10 5 19 10 19 6 0 10 7 10
15 0 8 4 15 9 15 10 0 27 39 23 53 -1 4 3 7 9 7 6 0 8 7 5 16 -3 8 -2 13 2 10
5 -3 17 15 28 40 20 47 28 52 49 30z m460 -96 c-3 -5 -10 -10 -16 -10 -5 0 -9
5 -9 10 0 6 7 10 16 10 8 0 12 -4 9 -10z m-9567 -3327 c-1 -5 4 -48 11 -98 19
-134 21 -147 28 -158 4 -6 1 -7 -6 -2 -10 6 -11 3 -3 -11 5 -11 10 -35 11 -54
1 -19 3 -48 6 -65 5 -32 12 -226 20 -580 3 -121 7 -236 9 -255 2 -19 7 -69 11
-110 3 -41 8 -86 10 -100 2 -14 7 -50 10 -80 3 -30 8 -66 10 -80 2 -14 7 -50
10 -80 3 -30 8 -62 10 -70 3 -8 7 -33 11 -55 3 -22 7 -50 9 -62 2 -11 6 -29 9
-40 3 -10 8 -31 10 -48 3 -16 17 -70 31 -120 13 -49 25 -93 25 -98 0 -4 -21 8
-47 26 -48 32 -170 94 -310 157 -40 18 -73 37 -73 41 0 5 -3 9 -7 8 -17 -2
-53 14 -53 24 0 6 -3 8 -6 4 -3 -3 -24 5 -45 19 -21 13 -41 24 -43 24 -2 0
-46 20 -98 44 -175 83 -422 173 -610 222 -5 1 -9 2 -10 3 -2 2 -14 5 -28 7
-14 3 -43 9 -65 15 -22 6 -47 12 -55 14 -67 13 -145 40 -245 85 -35 16 -79 33
-96 36 -63 13 -62 16 7 79 37 33 110 102 163 154 100 97 154 139 209 160 17 8
32 18 32 23 0 5 4 7 9 4 4 -3 19 3 31 14 12 11 27 17 31 14 5 -3 9 0 9 5 0 6
5 11 11 11 22 0 319 207 319 223 0 6 3 8 6 4 6 -6 30 14 134 110 31 29 69 63
83 76 15 12 27 29 27 36 0 8 3 11 6 8 4 -3 18 7 33 22 14 16 61 66 103 112 43
46 85 95 95 108 10 13 26 31 36 39 9 9 17 22 17 29 0 7 5 13 10 13 6 0 14 8
17 17 4 9 16 28 27 41 12 13 21 26 21 30 0 7 30 44 68 83 25 26 60 40 55 22z
m23657 -13108 c79 -68 219 -211 189 -193 -5 3 -61 31 -125 61 -85 40 -124 65
-147 93 -29 35 -62 110 -62 141 0 13 62 -31 145 -102z"/>
<path d="M17235 7999 c-4 -6 -5 -12 -2 -15 2 -3 7 2 10 11 7 17 1 20 -8 4z"/>
<path d="M17470 7996 c0 -2 7 -7 16 -10 8 -3 12 -2 9 4 -6 10 -25 14 -25 6z"/>
<path d="M18026 7992 c-3 -5 1 -9 9 -9 8 0 12 4 9 9 -3 4 -7 8 -9 8 -2 0 -6
-4 -9 -8z"/>
<path d="M21355 7781 c-3 -5 -2 -12 3 -15 5 -3 9 1 9 9 0 17 -3 19 -12 6z"/>
<path d="M31007 5989 c7 -7 15 -10 18 -7 3 3 -2 9 -12 12 -14 6 -15 5 -6 -5z"/>
</g>
</svg>
