<svg width="88" height="152" viewBox="0 0 78 135" fill="none" xmlns="http://www.w3.org/2000/svg">
<g filter="url(#filter0_d)">
<path d="M39.9001 121.7L10.2001 46.4003L68.0001 45.8003L39.9001 121.7Z" fill="#964A09"/>
<path d="M39.9001 117.9L11.5001 46.4003H66.5001L39.9001 117.9Z" fill="#E0A630"/>
<path d="M66.5 46.4003L39.9001 117.9L39.8 117.8V46.4003H66.5Z" fill="url(#paint0_linear)"/>
<path d="M39.8001 46.4003V117.8L11.5001 46.4003H39.8001Z" fill="url(#paint1_linear)"/>
<path opacity="0.6" d="M14.8 54.7003L39.9001 117.9V115.8L15.8 53.1003L14.8 54.7003Z" fill="#FFCB27"/>
<path opacity="0.6" d="M64.6001 51.5003L39.9001 117.9V115.8L64.1001 49.4003L64.6001 51.5003Z" fill="url(#paint2_linear)"/>
<path d="M39.0001 65.0002C56.6732 65.0002 71.0001 50.6734 71.0001 33.0002C71.0001 15.3271 56.6732 1.00024 39.0001 1.00024C21.3269 1.00024 7.00006 15.3271 7.00006 33.0002C7.00006 50.6734 21.3269 65.0002 39.0001 65.0002Z" fill="#964A09"/>
<path d="M39.0001 63.6003C55.9 63.6003 69.6001 49.9002 69.6001 33.0003C69.6001 16.1004 55.9 2.40027 39.0001 2.40027C22.1002 2.40027 8.40009 16.1004 8.40009 33.0003C8.40009 49.9002 22.1002 63.6003 39.0001 63.6003Z" fill="url(#paint3_linear)"/>
<path d="M59.4203 35.3633C61.2632 24.0807 53.6108 13.4405 42.3283 11.5976C31.0457 9.7547 20.4055 17.407 18.5626 28.6896C16.7197 39.9721 24.3721 50.6124 35.6546 52.4552C46.9371 54.2981 57.5774 46.6458 59.4203 35.3633Z" fill="#C66300"/>
<path d="M39.0001 54.9002C50.598 54.9002 60.0001 45.6325 60.0001 34.2002C60.0001 22.768 50.598 13.5002 39.0001 13.5002C27.4021 13.5002 18.0001 22.768 18.0001 34.2002C18.0001 45.6325 27.4021 54.9002 39.0001 54.9002Z" fill="#FCD16C"/>
<path d="M47.0433 52.2796C57.5816 47.8484 62.5324 35.7133 58.1012 25.175C53.6701 14.6367 41.535 9.6859 30.9967 14.1171C20.4584 18.5482 15.5076 30.6834 19.9387 41.2216C24.3699 51.7599 36.505 56.7107 47.0433 52.2796Z" fill="#600000"/>
<path d="M32.1 52.1003L21.5 43.2003L19.1 29.5003L26 17.5003L39 12.8003L52 17.5003L59 29.5003L56.6 43.2003L45.9 52.1003H32.1Z" fill="#9B0B23"/>
<path opacity="0.8" d="M33.7001 48.2002L25.4001 41.2002L23.5001 30.6002L28.9001 21.2002L39.1001 17.5002L49.2001 21.2002L54.6001 30.6002L52.8001 41.2002L44.5001 48.2002H33.7001Z" fill="#FC3053"/>
<path d="M35.4 42.8003L32.1 52.1003L42.7 42.8003H35.4Z" fill="#D60D2B"/>
<path d="M42.7 42.8003L45.9 52.1003H32.1L42.7 42.8003Z" fill="#BC0D37"/>
<path d="M45.9001 52.1002L48.2001 38.1002L42.7001 42.8002L45.9001 52.1002Z" fill="#F91E3E"/>
<path d="M56.6001 43.2003L49.5001 30.9003L48.2001 38.1003L56.6001 43.2003Z" fill="#FC1D47"/>
<path d="M52.0001 17.5002L49.5001 30.9002L59.0001 29.5002L52.0001 17.5002Z" fill="#FF5086"/>
<path d="M52.0001 17.5003L45.9001 24.6003L39.0001 12.8003L52.0001 17.5003Z" fill="#FF649C"/>
<path d="M32.2001 24.6003L39.0001 22.1003V12.8003L32.2001 24.6003Z" fill="#FF486F"/>
<path d="M28.5001 30.9002L32.2001 24.6002L26.0001 17.5002L28.5001 30.9002Z" fill="#F91E43"/>
<path d="M19.1 29.5002L28.5 30.9002L21.5 43.2002L19.1 29.5002Z" fill="#9B152E"/>
<path d="M29.8001 38.1002L21.5001 43.2002L32.1001 52.1002L29.8001 38.1002Z" fill="#8C1129"/>
<path d="M28.5001 30.9003L21.5001 43.2003L29.8001 38.1003L28.5001 30.9003Z" fill="#BC0C32"/>
<path d="M39.0001 12.8003V22.1003L45.9001 24.6003L39.0001 12.8003Z" fill="#EA5482"/>
<path d="M26.0001 17.5003L32.2001 24.6003L39.0001 12.8003L26.0001 17.5003Z" fill="#F97D9D"/>
<path d="M26 17.5002L28.5 30.9002L19.1 29.5002L26 17.5002Z" fill="#D30F35"/>
<path d="M52.0001 17.5002L45.9001 24.6002L49.5001 30.9002L52.0001 17.5002Z" fill="#F2ADBC"/>
<path d="M59.0001 29.5002L49.5001 30.9002L56.6001 43.2002L59.0001 29.5002Z" fill="#F4ABB4"/>
<path d="M48.2001 38.1002L45.9001 52.1002L56.6001 43.2002L48.2001 38.1002Z" fill="#DD2A55"/>
<path d="M29.8 38.1002L32.1 52.1002L35.4 42.8002L29.8 38.1002Z" fill="#AD1C3B"/>
<path opacity="0.4" d="M32.3 40.2002L37.8 37.0002L39.1 42.8002H35.4L32.3 40.2002Z" fill="#CC1F49"/>
<path opacity="0.4" d="M45.9001 40.1003L44.5001 35.6003L48.9001 34.4003L48.2001 38.1003L45.9001 40.1003Z" fill="#CC1F3C"/>
<path opacity="0.4" d="M42.4001 23.3003L43.2001 28.1003L47.5001 27.4003L45.9001 24.6003L42.4001 23.3003Z" fill="#CC1F45"/>
<path opacity="0.4" d="M36.1 23.2002V28.6002L30.6 27.3002L32.2 24.6002L36.1 23.2002Z" fill="#CC1F45"/>
<path d="M21.5001 43.2002L27.4001 44.6002L32.1001 52.1002L21.5001 43.2002Z" fill="#9E123A"/>
<path opacity="0.3" d="M29.1001 34.1003L34.1001 31.7003L28.5001 30.9003L29.1001 34.1003Z" fill="#CC1F41"/>
<path d="M32.1 52.1002L40.2 50.5002L45.9 52.1002H32.1Z" fill="#9E0A23"/>
<path d="M21.5 42.8002L22 35.6002L19.1 29.5002L21.5 42.8002Z" fill="#AD1847"/>
<path d="M26 17.5002L23.8 24.6002L19.1 29.5002L26 17.5002Z" fill="#B21231"/>
<path d="M39.0001 12.8003L32.6001 17.5003H26.0001L39.0001 12.8003Z" fill="#F9B9C8"/>
<path d="M52.0001 17.5003H45.9001L39.0001 12.8003L52.0001 17.5003Z" fill="#F24674"/>
<path d="M52.0001 17.5002L54.2001 24.5002L59.0001 29.5002L52.0001 17.5002Z" fill="#ED357C"/>
<path d="M59 29.5002L56.6 35.6002V43.2002L59 29.5002Z" fill="#EA5471"/>
<path d="M45.9001 52.1002L50.6001 46.0002L56.6001 43.2002L45.9001 52.1002Z" fill="#C1112F"/>
<path d="M35.4 42.8003L32.1 52.1003H32.6L35.8 42.8003H35.4Z" fill="#E85489"/>
<path d="M42.7001 42.8002L45.9001 52.1002L46.2001 51.8002L43.0001 42.5002L42.7001 42.8002Z" fill="#FF83A9"/>
<path opacity="0.8" d="M21.5001 43.2003L29.8001 38.2003V37.8003L21.4001 42.9003L21.5001 43.2003Z" fill="#FF83B3"/>
<path opacity="0.8" d="M28.5 30.9002L19.1 29.5002L19.2 29.2002L28.4 30.5002L28.5 30.9002Z" fill="#FF5FA0"/>
<path opacity="0.8" d="M48.2001 38.1003L56.6001 43.2003V42.8003L48.3001 37.8003L48.2001 38.1003Z" fill="#FF83B3"/>
<path d="M49.5 30.9002L59 29.5002L58.8 29.2002L49.3 30.6002L49.5 30.9002Z" fill="#FFBDCD"/>
<path d="M52.0001 17.5002L45.9001 24.6002L46.0001 24.8002L52.2001 17.7002L52.0001 17.5002Z" fill="#FFBDCA"/>
<path opacity="0.6" d="M39.0001 12.8003V22.1003L39.2001 22.2003V12.9003L39.0001 12.8003Z" fill="#FFBDCA"/>
<path opacity="0.5" d="M26.0001 17.5003L32.2001 24.6003L32.5001 24.5003L26.2001 17.4003L26.0001 17.5003Z" fill="#FFBDC7"/>
<path opacity="0.3" d="M29.8 38.1003L30.2001 37.9003L35.5 42.4003L35.4 42.8003L29.8 38.1003Z" fill="#FFD7E1"/>
<path opacity="0.2" d="M35.5001 42.4003H42.7001V42.8003H35.4001L35.5001 42.4003Z" fill="#FFBDCB"/>
<path opacity="0.3" d="M48.2001 38.1003L47.9001 37.8003L42.7001 42.4003V42.8003L48.2001 38.1003Z" fill="#FFD2E1"/>
<path opacity="0.3" d="M28.5001 30.9002L28.9001 31.0002L32.5001 24.8002L32.2001 24.6002L28.5001 30.9002Z" fill="#FFCCD6"/>
<path opacity="0.2" d="M28.5001 30.9003L29.8001 38.1003L30.2001 37.9003L28.9001 31.0003L28.5001 30.9003Z" fill="#FFD7E2"/>
<path opacity="0.2" d="M40.8001 36.1002C40.8001 36.1002 40.2001 33.1002 42.5001 32.0002L39.7001 32.4002L40.8001 36.1002Z" fill="#FFBDC5"/>
<path opacity="0.2" d="M39.0001 42.4002C39.0001 42.4002 41.8001 41.7002 41.3001 38.0002L42.6001 42.4002H39.0001Z" fill="#FFBDCA"/>
</g>
<defs>
<filter id="filter0_d" x="6.10352e-05" y="0.000244141" width="78" height="134.7" filterUnits="userSpaceOnUse" color-interpolation-filters="sRGB">
<feFlood flood-opacity="0" result="BackgroundImageFix"/>
<feColorMatrix in="SourceAlpha" type="matrix" values="0 0 0 0 0 0 0 0 0 0 0 0 0 0 0 0 0 0 127 0" result="hardAlpha"/>
<feOffset dy="6"/>
<feGaussianBlur stdDeviation="3.5"/>
<feColorMatrix type="matrix" values="0 0 0 0 0 0 0 0 0 0 0 0 0 0 0 0 0 0 0.25 0"/>
<feBlend mode="normal" in2="BackgroundImageFix" result="effect1_dropShadow"/>
<feBlend mode="normal" in="SourceGraphic" in2="effect1_dropShadow" result="shape"/>
</filter>
<linearGradient id="paint0_linear" x1="35.683" y1="61.8056" x2="59.2339" y2="89.1299" gradientUnits="userSpaceOnUse">
<stop stop-color="#860410"/>
<stop offset="0.2445" stop-color="#A14109"/>
<stop offset="1" stop-color="#DFAC32"/>
</linearGradient>
<linearGradient id="paint1_linear" x1="33.3113" y1="119.187" x2="25.6863" y2="46.6679" gradientUnits="userSpaceOnUse">
<stop stop-color="#F5CF45"/>
<stop offset="0.1434" stop-color="#F2C841"/>
<stop offset="0.3508" stop-color="#E8B537"/>
<stop offset="0.597" stop-color="#D99526"/>
<stop offset="0.8709" stop-color="#C36A0E"/>
<stop offset="1" stop-color="#B85302"/>
</linearGradient>
<linearGradient id="paint2_linear" x1="59.7398" y1="65.2966" x2="41.2156" y2="108.992" gradientUnits="userSpaceOnUse">
<stop stop-color="#B86D1A"/>
<stop offset="1" stop-color="#F2CA42"/>
</linearGradient>
<linearGradient id="paint3_linear" x1="32.6004" y1="3.06757" x2="45.4892" y2="63.2153" gradientUnits="userSpaceOnUse">
<stop stop-color="#DFA329"/>
<stop offset="0.00262401" stop-color="#DFA42B"/>
<stop offset="0.0779649" stop-color="#EBBF5F"/>
<stop offset="0.1485" stop-color="#F3D588"/>
<stop offset="0.2123" stop-color="#FAE4A6"/>
<stop offset="0.2671" stop-color="#FEEEB8"/>
<stop offset="0.3066" stop-color="#FFF1BE"/>
<stop offset="0.3738" stop-color="#FEEBAF"/>
<stop offset="0.5032" stop-color="#FDDC87"/>
<stop offset="0.6801" stop-color="#FAC348"/>
<stop offset="0.8212" stop-color="#F8AE11"/>
<stop offset="0.8675" stop-color="#F1A411"/>
<stop offset="0.945" stop-color="#DF8A10"/>
<stop offset="1" stop-color="#D0740F"/>
</linearGradient>
</defs>
</svg>
