<svg width="549" height="550" viewBox="0 0 549 550" fill="none" xmlns="http://www.w3.org/2000/svg">
<g filter="url(#filter0_d)">
<path fill-rule="evenodd" clip-rule="evenodd" d="M274.497 16.9903C134.041 16.9903 20.1798 130.852 20.1798 271.307C20.1798 411.763 134.041 525.624 274.497 525.624C414.952 525.625 528.814 411.763 528.814 271.307C528.814 130.852 414.952 16.9903 274.497 16.9903ZM274.497 50.41C152.499 50.41 53.5995 149.309 53.5995 271.307C53.5995 393.306 152.499 492.205 274.497 492.205C396.495 492.205 495.394 393.306 495.394 271.307C495.394 149.309 396.495 50.41 274.497 50.41Z" fill="#BF9E22"/>
<path d="M274.5 31.5801C142.083 31.5801 34.6778 138.985 34.6778 271.402C34.6778 403.819 142.018 511.224 274.5 511.224C406.982 511.224 514.322 403.884 514.322 271.402C514.322 138.92 406.917 31.5801 274.5 31.5801ZM274.5 504.971C145.47 504.971 40.9306 400.432 40.9306 271.402C40.9306 142.372 145.47 37.8329 274.5 37.8329C403.53 37.8329 508.069 142.372 508.069 271.402C508.069 400.432 403.53 504.971 274.5 504.971Z" fill="url(#paint0_linear)"/>
<path opacity="0.25" d="M274.5 24.3503C138.045 24.3503 27.5131 134.947 27.5131 271.402C27.5131 407.857 138.11 518.389 274.5 518.389C410.89 518.389 521.487 407.792 521.487 271.402C521.487 135.012 410.89 24.3503 274.5 24.3503ZM274.5 514.416C140.325 514.416 31.4863 405.643 31.4863 271.402C31.4863 137.162 140.259 28.3886 274.5 28.3886C408.74 28.3886 517.514 137.162 517.514 271.402C517.514 405.643 408.675 514.416 274.5 514.416Z" fill="#FFCE31"/>
<path d="M274.5 42.3271C148.01 42.3271 45.4249 144.913 45.4249 271.402C45.4249 397.892 148.01 500.477 274.5 500.477C400.989 500.477 503.575 397.892 503.575 271.402C503.575 144.913 400.989 42.3271 274.5 42.3271ZM274.5 498.263C149.183 498.263 47.6394 396.719 47.6394 271.402C47.6394 146.085 149.183 44.5417 274.5 44.5417C399.817 44.5417 501.36 146.085 501.36 271.402C501.36 396.719 399.817 498.263 274.5 498.263Z" fill="url(#paint1_linear)"/>
<path d="M274.5 44.5417C149.183 44.5417 47.6393 146.085 47.6393 271.402C47.6393 396.719 149.183 498.263 274.5 498.263C399.817 498.263 501.36 396.719 501.36 271.402C501.36 146.085 399.817 44.5417 274.5 44.5417ZM274.5 491.619C152.83 491.619 54.283 393.007 54.283 271.402C54.283 149.798 152.83 51.1202 274.5 51.1202C396.169 51.1202 494.717 149.733 494.717 271.402C494.717 393.072 396.169 491.619 274.5 491.619Z" fill="url(#paint2_linear)"/>
<path d="M274.5 35.4882C144.167 35.4882 38.5858 141.135 38.5858 271.402C38.5858 401.669 144.233 507.316 274.5 507.316C404.767 507.316 510.414 401.669 510.414 271.402C510.414 141.135 404.767 35.4882 274.5 35.4882ZM274.5 498.263C149.183 498.263 47.6393 396.719 47.6393 271.402C47.6393 146.085 149.183 44.5417 274.5 44.5417C399.817 44.5417 501.36 146.085 501.36 271.402C501.36 396.719 399.817 498.263 274.5 498.263Z" fill="url(#paint3_linear)"/>
<path d="M274.5 40.1777C146.773 40.1777 43.2755 143.675 43.2755 271.402C43.2755 399.129 146.773 502.627 274.5 502.627C402.227 502.627 505.724 399.129 505.724 271.402C505.724 143.675 402.162 40.1777 274.5 40.1777ZM274.5 498.263C149.183 498.263 47.6394 396.719 47.6394 271.402C47.6394 146.085 149.183 44.5417 274.5 44.5417C399.817 44.5417 501.36 146.085 501.36 271.402C501.36 396.719 399.817 498.263 274.5 498.263Z" fill="#FAFFB7"/>
<path d="M274.5 0.902222C125.083 0.902222 3.99982 121.986 3.99982 271.402C3.99982 420.819 125.083 541.902 274.5 541.902C423.916 541.902 545 420.819 545 271.402C545 121.986 423.916 0.902222 274.5 0.902222ZM274.5 523.535C135.244 523.535 22.3675 410.658 22.3675 271.402C22.3675 132.146 135.244 19.2699 274.5 19.2699C413.756 19.2699 526.632 132.146 526.632 271.402C526.632 410.658 413.756 523.535 274.5 523.535Z" fill="url(#paint4_linear)"/>
<path d="M274.5 0.902222C125.083 0.902222 3.99982 121.986 3.99982 271.402C3.99982 420.819 125.083 541.902 274.5 541.902C423.916 541.902 545 420.819 545 271.402C545 121.986 423.916 0.902222 274.5 0.902222ZM274.5 533.826C129.577 533.826 12.0764 416.325 12.0764 271.402C12.0764 126.48 129.577 8.97879 274.5 8.97879C419.422 8.97879 536.923 126.48 536.923 271.402C536.923 416.325 419.422 533.826 274.5 533.826Z" fill="url(#paint5_linear)"/>
<path d="M274.5 16.9902C134.007 16.9902 20.0878 130.909 20.0878 271.402C20.0878 411.896 134.007 525.814 274.5 525.814C414.993 525.814 528.912 411.896 528.912 271.402C528.912 130.909 414.993 16.9902 274.5 16.9902ZM274.5 520.994C136.612 520.994 24.8426 409.29 24.8426 271.402C24.8426 133.514 136.612 21.745 274.5 21.745C412.388 21.745 524.157 133.514 524.157 271.402C524.157 409.29 412.388 520.994 274.5 520.994Z" fill="#FAFFB7"/>
<path d="M274.412 17C133.919 17 20 130.919 20 271.412C20 411.905 133.919 525.824 274.412 525.824C414.905 525.824 528.824 411.905 528.824 271.412C528.824 130.919 414.905 17 274.412 17ZM274.412 521.004C136.524 521.004 24.7548 409.3 24.7548 271.412C24.7548 133.524 136.524 21.7548 274.412 21.7548C412.3 21.7548 524.069 133.524 524.069 271.412C524.069 409.3 412.3 521.004 274.412 521.004Z" fill="#FAFFB7"/>
</g>
<defs>
<filter id="filter0_d" x="-0.000183105" y="0.902222" width="549" height="549" filterUnits="userSpaceOnUse" color-interpolation-filters="sRGB">
<feFlood flood-opacity="0" result="BackgroundImageFix"/>
<feColorMatrix in="SourceAlpha" type="matrix" values="0 0 0 0 0 0 0 0 0 0 0 0 0 0 0 0 0 0 127 0" result="hardAlpha"/>
<feOffset dy="4"/>
<feGaussianBlur stdDeviation="2"/>
<feComposite in2="hardAlpha" operator="out"/>
<feColorMatrix type="matrix" values="0 0 0 0 0 0 0 0 0 0 0 0 0 0 0 0 0 0 0.25 0"/>
<feBlend mode="normal" in2="BackgroundImageFix" result="effect1_dropShadow"/>
<feBlend mode="normal" in="SourceGraphic" in2="effect1_dropShadow" result="shape"/>
</filter>
<linearGradient id="paint0_linear" x1="274.498" y1="37.4508" x2="274.498" y2="492.657" gradientUnits="userSpaceOnUse">
<stop stop-color="#4B1400"/>
<stop offset="0.0760262" stop-color="#4C1700"/>
<stop offset="1" stop-color="#5C3900"/>
</linearGradient>
<linearGradient id="paint1_linear" x1="274.495" y1="39.4666" x2="274.495" y2="490.103" gradientUnits="userSpaceOnUse">
<stop stop-color="#511B21"/>
<stop offset="0.0727119" stop-color="#5A321D"/>
<stop offset="0.183" stop-color="#665019"/>
<stop offset="0.2781" stop-color="#6D6216"/>
<stop offset="0.3467" stop-color="#706815"/>
<stop offset="0.5104" stop-color="#8C7625"/>
<stop offset="0.6953" stop-color="#A58233"/>
<stop offset="0.8639" stop-color="#B5893C"/>
<stop offset="1" stop-color="#BA8C3F"/>
</linearGradient>
<linearGradient id="paint2_linear" x1="274.495" y1="44.5365" x2="274.495" y2="498.251" gradientUnits="userSpaceOnUse">
<stop stop-color="#511B21"/>
<stop offset="0.0727119" stop-color="#5A321D"/>
<stop offset="0.183" stop-color="#665019"/>
<stop offset="0.2781" stop-color="#6D6216"/>
<stop offset="0.3467" stop-color="#706815"/>
<stop offset="0.5104" stop-color="#8C7625"/>
<stop offset="0.6953" stop-color="#A58233"/>
<stop offset="0.8639" stop-color="#B5893C"/>
<stop offset="1" stop-color="#BA8C3F"/>
</linearGradient>
<linearGradient id="paint3_linear" x1="274.495" y1="30.5458" x2="274.495" y2="504.707" gradientUnits="userSpaceOnUse">
<stop stop-color="#F5CB39"/>
<stop offset="0.0635238" stop-color="#F5D65B"/>
<stop offset="0.1504" stop-color="#F4E284"/>
<stop offset="0.2296" stop-color="#F4EBA2"/>
<stop offset="0.2977" stop-color="#F4F1B4"/>
<stop offset="0.3467" stop-color="#F4F3BA"/>
<stop offset="0.36" stop-color="#F4F2B6"/>
<stop offset="0.5073" stop-color="#F2E489"/>
<stop offset="0.6491" stop-color="#F1DA66"/>
<stop offset="0.7821" stop-color="#F1D24D"/>
<stop offset="0.9027" stop-color="#F0CE3D"/>
<stop offset="1" stop-color="#F0CC38"/>
</linearGradient>
<linearGradient id="paint4_linear" x1="274.495" y1="-4.73542" x2="274.495" y2="538.883" gradientUnits="userSpaceOnUse">
<stop stop-color="#F5DB39"/>
<stop offset="0.0635238" stop-color="#F5E15B"/>
<stop offset="0.1504" stop-color="#F4E984"/>
<stop offset="0.2296" stop-color="#F4EEA2"/>
<stop offset="0.2977" stop-color="#F4F2B4"/>
<stop offset="0.3467" stop-color="#F4F3BA"/>
<stop offset="0.4413" stop-color="#F4E894"/>
<stop offset="0.5729" stop-color="#F3D965"/>
<stop offset="0.6987" stop-color="#F3CE40"/>
<stop offset="0.8152" stop-color="#F2C626"/>
<stop offset="0.9192" stop-color="#F2C216"/>
<stop offset="1" stop-color="#F2C010"/>
</linearGradient>
<linearGradient id="paint5_linear" x1="146.664" y1="32.9542" x2="400.284" y2="506.032" gradientUnits="userSpaceOnUse">
<stop stop-color="#DFA329"/>
<stop offset="0.0488024" stop-color="#E6B556"/>
<stop offset="0.1126" stop-color="#EFCA8A"/>
<stop offset="0.1725" stop-color="#F6DBB3"/>
<stop offset="0.2266" stop-color="#FBE7D1"/>
<stop offset="0.2731" stop-color="#FEEEE3"/>
<stop offset="0.3066" stop-color="#FFF1E9"/>
<stop offset="0.3462" stop-color="#FFECDA"/>
<stop offset="0.4226" stop-color="#FDE0B2"/>
<stop offset="0.528" stop-color="#FBCC72"/>
<stop offset="0.6571" stop-color="#F8B11B"/>
<stop offset="0.6715" stop-color="#F8AE11"/>
<stop offset="0.7259" stop-color="#F1A40F"/>
<stop offset="0.8174" stop-color="#DF8A0B"/>
<stop offset="0.9338" stop-color="#C26004"/>
<stop offset="1" stop-color="#AF4500"/>
</linearGradient>
</defs>
</svg>
